HIERARCHY
ROOT Hips
{
	OFFSET 0.00000 0.00000 0.00000
	CHANNELS 6 Xposition Yposition Zposition Zrotation Yrotation Xrotation 
	JOINT LHipJoint
	{
		OFFSET 0 0 0
		CHANNELS 3 Zrotation Yrotation Xrotation
		JOINT LeftHip
		{
			OFFSET 1.37590 -1.78394 0.89329
			CHANNELS 3 Zrotation Yrotation Xrotation
			JOINT LeftKnee
			{
				OFFSET 2.47928 -6.81178 0.00000
				CHANNELS 3 Zrotation Yrotation Xrotation
				JOINT LeftAnkle
				{
					OFFSET 2.63345 -7.23535 0.00000
					CHANNELS 3 Zrotation Yrotation Xrotation
					JOINT LeftToe
					{
						OFFSET 0.23938 -0.65768 2.27012
						CHANNELS 3 Zrotation Yrotation Xrotation
						End Site
						{
							OFFSET 0.00000 -0.00000 1.18363
						}
					}
				}
			}
		}
	}
	JOINT RHipJoint
	{
		OFFSET 0 0 0
		CHANNELS 3 Zrotation Yrotation Xrotation
		JOINT RightHip
		{
			OFFSET -1.33617 -1.78394 0.89329
			CHANNELS 3 Zrotation Yrotation Xrotation
			JOINT RightKnee
			{
				OFFSET -2.56922 -7.05888 0.00000
				CHANNELS 3 Zrotation Yrotation Xrotation
				JOINT RightAnkle
				{
					OFFSET -2.56568 -7.04915 0.00000
					CHANNELS 3 Zrotation Yrotation Xrotation
					JOINT RightToe
					{
						OFFSET -0.27533 -0.75646 2.18105
						CHANNELS 3 Zrotation Yrotation Xrotation
						End Site
						{
							OFFSET -0.00000 -0.00000 1.15233
						}
					}
				}
			}
		}
	}
	JOINT lowerback
	{
		OFFSET 0 0 0
		CHANNELS 3 Zrotation Yrotation Xrotation
		JOINT Chest
		{
			OFFSET 0.06190 2.15152 -0.00935
			CHANNELS 3 Zrotation Yrotation Xrotation
			JOINT Chest2
			{
				OFFSET 0.06334 2.15332 0.00872
				CHANNELS 3 Zrotation Yrotation Xrotation
				JOINT lowerneck
				{
					OFFSET 0 0 0
					CHANNELS 3 Zrotation Yrotation Xrotation
					JOINT Neck
					{
						OFFSET -0.04202 1.66908 0.23524
						CHANNELS 3 Zrotation Yrotation Xrotation
						JOINT Head
						{
							OFFSET 0.07510 1.69357 -0.24440
							CHANNELS 3 Zrotation Yrotation Xrotation
							End Site
							{
								OFFSET 0.02556 1.71719 -0.11000
							}
						}
					}
				}
				JOINT LeftCollar
				{
					OFFSET 0 0 0
					CHANNELS 3 Zrotation Yrotation Xrotation
					JOINT LeftShoulder
					{
						OFFSET 3.67168 1.26306 -0.41342
CHANNELS 3 Zrotation Xrotation Yrotation
						JOINT LeftElbow
						{
OFFSET 0 -4.685100 -0.000000
CHANNELS 3 Zrotation Xrotation Yrotation
							JOINT LeftWrist
							{
OFFSET 0 -3.396260 -0.000000
CHANNELS 3 Zrotation Xrotation Yrotation
								JOINT lhand
								{
									OFFSET 0 0 0
CHANNELS 3 Zrotation Xrotation Yrotation
									JOINT LFingers
									{
OFFSET 0 -0.486080 -0.000000
CHANNELS 3 Zrotation Xrotation Yrotation
										End Site
										{
OFFSET 0 -0.391890 -0.000000
										}
									}
								}
								JOINT LThumb
								{
OFFSET 0 0.000000 0.000000
CHANNELS 3 Zrotation Xrotation Yrotation
									End Site
									{
OFFSET 0 -0.397870 0.397870
									}
								}
							}
						}
					}
				}
				JOINT RightCollar
				{
					OFFSET 0 0 0
					CHANNELS 3 Zrotation Yrotation Xrotation
					JOINT RightShoulder
					{
						OFFSET -3.04136 1.42992 -0.76390
CHANNELS 3 Zrotation Xrotation Yrotation
						JOINT RightElbow
						{
OFFSET 0 -5.555760 -0.000000
CHANNELS 3 Zrotation Xrotation Yrotation
							JOINT RightWrist
							{
OFFSET 0 -3.327740 -0.000000
CHANNELS 3 Zrotation Xrotation Yrotation
								JOINT rhand
								{
									OFFSET 0 0 0
CHANNELS 3 Zrotation Xrotation Yrotation
									JOINT RFingers
									{
OFFSET 0 -0.507630 -0.000000
CHANNELS 3 Zrotation Xrotation Yrotation
										End Site
										{
OFFSET 0 -0.409260 -0.000000
										}
									}
								}
								JOINT RThumb
								{
OFFSET 0 0.000000 0.000000
CHANNELS 3 Zrotation Xrotation Yrotation
									End Site
									{
OFFSET 0 -0.415510 0.415510
									}
								}
							}
						}
					}
				}
			}
		}
	}
}
MOTION
Frames: 4
Frame Time: 0.008333333333333333
-10.132005 17.913321 6.111953 -12.280353 -84.850503 18.265173 0.000000 0.000000 0.000000 -19.517467 -2.401521 -0.007252 0.618021 5.031004 13.996958 0.634975 -3.480944 -14.272553 0.090555 -1.939108 -5.337486 0.000000 0.000000 0.000000 14.301781 3.793907 -33.194927 -1.497359 -7.728469 21.892935 0.759028 -15.663766 -9.866830 -0.154499 -2.532796 6.980671 1.215545 -0.985653 0.384577 2.572417 -1.267411 -3.798946 2.024707 -0.655214 -4.096232 -9.701784 -11.191725 -10.979352 26.973535 -17.956779 6.529324 8.309293 -7.841888 7.461814 0.000000 0.000000 0.000000 0.953671 -0.389448 -6.996021 16.199651 -25.790505 3.732453 16.840760 30.550882 -19.861389 0.000000 0.000000 0.000000 -7.125000 0.000000 0.000000 -11.507488 50.303235 1.521740 0.000000 0.000000 0.000000 -92.019493 -49.690759 -40.887613 -78.554287 -59.498642 -50.104464 -33.995223 10.490584 38.314086 0.000000 0.000000 0.000000 7.125000 0.000000 0.000000 1.335231 73.597613 -0.909174
-10.342385 17.900105 6.093766 -11.537524 -84.663598 17.684287 0.000000 0.000000 0.000000 -19.462717 -2.437813 0.516679 0.631361 5.084172 14.148726 0.659545 -3.515920 -14.550990 0.122464 -2.253669 -6.207362 0.000000 0.000000 0.000000 13.988312 4.371473 -32.903395 -1.327368 -7.294920 20.592605 0.811049 -16.085424 -9.751016 -0.163001 -2.600745 7.169129 1.308936 -1.047712 0.310024 2.694684 -1.348490 -3.850121 2.101450 -0.698233 -4.104783 -9.641175 -11.237572 -10.957138 27.048678 -18.093502 6.656578 8.305027 -7.895666 7.529048 0.000000 0.000000 0.000000 0.741768 -0.463349 -7.872975 16.498895 -26.192267 3.863607 16.976280 30.069479 -19.795765 0.000000 0.000000 0.000000 -7.125000 0.000000 0.000000 -11.353589 50.258799 1.488409 0.000000 0.000000 0.000000 -93.453395 -50.461622 -43.994074 -80.028156 -59.620099 -51.375189 -33.544361 9.811431 36.212293 0.000000 0.000000 0.000000 7.125000 0.000000 0.000000 0.201065 71.278900 -0.129880
-10.555427 17.887118 6.072659 -11.106277 -84.524758 17.400082 0.000000 0.000000 0.000000 -19.380495 -2.484060 1.006617 0.653858 5.172165 14.400151 0.681883 -3.519963 -14.803286 0.164357 -2.611440 -7.198747 0.000000 0.000000 0.000000 13.735668 4.953392 -32.597389 -1.194092 -6.933911 19.519739 0.860424 -16.472995 -9.603819 -0.173178 -2.680360 7.390177 1.385988 -1.103218 0.232845 2.824366 -1.421551 -3.894947 2.194457 -0.736693 -4.104769 -9.591441 -11.276884 -10.933780 27.107229 -18.218976 6.797555 8.298995 -7.944126 7.597117 0.000000 0.000000 0.000000 0.509682 -0.500605 -8.679549 16.755904 -26.534816 3.977691 17.099491 29.664032 -19.709409 0.000000 0.000000 0.000000 -7.125000 0.000000 0.000000 -11.204444 50.191333 1.449690 0.000000 0.000000 0.000000 -94.417152 -51.170008 -46.324239 -81.496041 -59.724864 -52.642160 -33.115617 9.181687 34.375318 0.000000 0.000000 0.000000 7.125000 0.000000 0.000000 -0.456700 69.219222 0.264771
-10.771517 17.874818 6.048466 -10.987185 -84.445542 17.406900 0.000000 0.000000 0.000000 -19.270526 -2.537249 1.450581 0.688438 5.304300 14.778555 0.700217 -3.489766 -15.010302 0.220043 -3.017136 -8.326670 0.000000 0.000000 0.000000 13.569743 5.506270 -32.286405 -1.097819 -6.657451 18.704583 0.900799 -16.773093 -9.405940 -0.186231 -2.779213 7.664737 1.442904 -1.150853 0.153407 2.961104 -1.484901 -3.930581 2.305309 -0.769448 -4.093479 -9.556901 -11.308426 -10.911858 27.147040 -18.331266 6.956401 8.291753 -7.985865 7.667630 0.000000 0.000000 0.000000 0.256316 -0.499116 -9.401213 16.956465 -26.800316 4.067689 17.192107 29.349368 -19.606036 0.000000 0.000000 0.000000 -7.125000 0.000000 0.000000 -11.079295 50.101639 1.408445 0.000000 0.000000 0.000000 -94.810739 -51.818135 -47.743073 -82.872764 -59.806552 -53.831673 -32.760462 8.688629 32.870417 0.000000 0.000000 0.000000 7.125000 0.000000 0.000000 -0.830781 67.517113 0.448969
